<?xml version="1.0" standalone="no"?>
<!DOCTYPE svg PUBLIC "-//W3C//DTD SVG 20010904//EN"
 "http://www.w3.org/TR/2001/REC-SVG-20010904/DTD/svg10.dtd">
<svg version="1.0" xmlns="http://www.w3.org/2000/svg"
 width="681.000000pt" height="82.000000pt" viewBox="0 0 681.000000 82.000000"
 preserveAspectRatio="xMidYMid meet">

<g transform="translate(0.000000,82.000000) scale(0.100000,-0.100000)"
fill="#000000" stroke="none">
<path d="M197 796 c-84 -18 -108 -40 -134 -124 -31 -99 -22 -114 50 -87 10 5
6 -23 -20 -112 -73 -254 -84 -303 -71 -326 36 -70 100 -117 156 -117 l34 0
-31 35 c-69 79 -69 72 -7 295 31 110 56 201 56 204 0 3 -15 2 -34 -1 -20 -3
-36 -1 -41 6 -9 15 32 151 53 174 18 20 102 47 149 47 18 0 33 5 33 10 0 14
-122 11 -193 -4z"/>
<path d="M934 798 c-80 -26 -223 -185 -224 -248 0 -14 -9 -42 -20 -62 -45 -84
-45 -249 -1 -337 39 -75 104 -121 171 -121 l31 0 -35 30 c-109 97 -121 316
-27 506 42 84 117 171 172 200 25 12 28 18 18 30 -13 16 -40 17 -85 2z"/>
<path d="M1437 789 c-21 -33 -121 -394 -156 -564 -20 -92 -26 -145 -20 -156
10 -20 60 -39 101 -39 27 0 28 1 13 16 -18 19 -20 8 32 234 38 168 119 464
135 493 12 24 12 24 -44 32 -42 6 -48 5 -61 -16z"/>
<path d="M1793 798 c-28 -36 -33 -102 -14 -198 11 -52 22 -122 26 -155 l8 -60
24 130 c13 72 32 164 43 205 10 41 18 75 17 76 -1 1 -23 5 -48 9 -32 5 -48 3
-56 -7z"/>
<path d="M2173 803 c-18 -7 -65 -159 -127 -415 -67 -274 -70 -291 -57 -316 10
-18 76 -42 117 -42 16 0 16 1 -1 20 -22 25 -20 39 50 325 62 257 111 415 128
416 7 0 3 4 -8 9 -22 9 -83 11 -102 3z"/>
<path d="M2538 793 c-24 -28 -163 -538 -182 -674 -8 -57 9 -76 80 -86 45 -6
48 -5 35 10 -11 14 -11 29 -1 84 23 137 153 628 172 650 14 18 11 20 -42 28
-37 5 -48 3 -62 -12z"/>
<path d="M2893 798 c-6 -7 -16 -33 -23 -56 -9 -37 -8 -65 10 -170 12 -70 24
-138 27 -152 4 -16 14 23 30 105 13 72 32 160 42 198 10 37 15 69 11 72 -22
13 -87 16 -97 3z"/>
<path d="M3342 784 c-65 -32 -152 -126 -191 -206 -46 -95 -64 -178 -59 -279 7
-150 80 -255 185 -267 l48 -5 -38 35 c-55 52 -80 117 -85 218 -5 105 14 193
63 291 35 68 118 164 175 202 21 14 23 18 10 26 -24 17 -52 13 -108 -15z"/>
<path d="M4228 798 c-36 -28 -228 -625 -228 -709 0 -34 20 -47 87 -56 44 -6
47 -5 31 10 -15 15 -15 23 -2 79 35 152 146 504 196 621 12 27 27 48 37 48 23
2 -38 16 -75 18 -16 0 -37 -5 -46 -11z"/>
<path d="M5214 786 c-180 -84 -301 -383 -239 -592 27 -92 109 -164 187 -164
l33 0 -33 26 c-57 45 -85 115 -90 225 -5 110 11 189 59 286 33 69 111 160 165
194 28 17 32 24 23 35 -16 20 -47 17 -105 -10z"/>
<path d="M6415 798 c-112 -40 -216 -177 -261 -343 -18 -67 -18 -200 2 -264 26
-90 108 -161 184 -161 l32 0 -32 26 c-32 28 -72 97 -84 148 -11 45 -8 178 5
232 30 125 126 269 216 325 27 17 31 24 22 35 -13 16 -42 17 -84 2z"/>
<path d="M1130 785 c7 -9 9 -26 5 -45 l-7 -32 26 17 c31 20 33 36 8 58 -24 22
-50 24 -32 2z"/>
<path d="M3565 756 c0 -37 3 -43 16 -36 34 19 40 35 18 58 -28 31 -34 28 -34
-22z"/>
<path d="M5429 791 c10 -6 12 -20 8 -45 -5 -34 -4 -35 14 -25 11 6 23 17 26
25 7 18 -24 54 -46 54 -13 0 -14 -2 -2 -9z"/>
<path d="M6610 785 c7 -9 10 -27 6 -45 -6 -30 -5 -30 19 -14 30 19 31 35 7 57
-24 22 -50 24 -32 2z"/>
<path d="M5654 778 c-14 -22 -32 -118 -27 -138 5 -17 14 -20 60 -20 30 0 52 4
49 9 -9 15 15 114 31 133 14 15 40 18 192 21 164 2 160 3 -61 5 -174 1 -239
-1 -244 -10z"/>
<path d="M1111 621 c-7 -13 -28 -37 -46 -53 -27 -23 -35 -40 -40 -76 -11 -84
-27 -146 -51 -193 -19 -38 -21 -49 -11 -70 8 -15 23 -25 39 -27 57 -7 120 129
132 283 3 44 2 98 -2 120 -8 39 -8 40 -21 16z"/>
<path d="M3546 624 c-3 -12 -24 -35 -46 -53 -31 -25 -40 -39 -40 -64 -1 -49
-24 -146 -50 -205 -27 -63 -18 -102 24 -102 63 0 124 138 133 300 5 97 -7 168
-21 124z"/>
<path d="M5415 623 c-4 -11 -24 -35 -44 -51 -35 -28 -38 -35 -49 -111 -6 -44
-23 -108 -37 -142 -28 -70 -30 -90 -13 -107 32 -32 78 -3 116 73 41 82 64 266
42 335 -8 24 -8 25 -15 3z"/>
<path d="M6595 625 c-5 -11 -25 -35 -46 -52 -29 -26 -38 -42 -43 -80 -12 -85
-28 -147 -51 -194 -19 -39 -21 -51 -11 -70 7 -14 22 -25 37 -27 55 -6 114 110
131 260 11 93 -1 203 -17 163z"/>
<path d="M410 601 c13 -25 13 -72 0 -107 -6 -15 -9 -29 -6 -31 2 -3 25 4 49
15 111 49 94 142 -25 142 -25 0 -27 -2 -18 -19z"/>
<path d="M5787 578 c-3 -13 -32 -130 -66 -260 -33 -130 -58 -244 -55 -252 6
-16 62 -36 102 -36 19 0 20 3 11 17 -8 14 3 72 51 258 85 329 83 295 17 295
-49 0 -55 -3 -60 -22z"/>
<path d="M4551 564 c0 -11 3 -14 6 -6 3 7 2 16 -1 19 -3 4 -6 -2 -5 -13z"/>
<path d="M4552 515 c0 -16 2 -22 5 -12 2 9 2 23 0 30 -3 6 -5 -1 -5 -18z"/>
<path d="M4770 452 c-18 -42 -53 -116 -76 -163 -40 -81 -70 -202 -57 -236 5
-13 37 -23 78 -23 28 0 30 3 31 38 1 20 15 131 32 246 18 115 30 211 29 213
-2 1 -19 -32 -37 -75z"/>
<path d="M4385 463 c-10 -32 -36 -133 -60 -225 -41 -161 -41 -168 -24 -184 10
-9 39 -19 65 -22 44 -5 45 -4 34 15 -10 15 -10 68 -2 243 6 123 9 226 7 228
-2 2 -11 -23 -20 -55z"/>
<path d="M1636 475 c-4 -22 -18 -98 -31 -170 -24 -133 -23 -196 4 -229 13 -15
50 -29 109 -41 l33 -7 -26 26 c-14 14 -25 31 -25 39 0 20 -50 400 -54 412 -2
6 -7 -8 -10 -30z"/>
<path d="M2710 357 c-26 -150 -30 -240 -11 -275 11 -20 37 -30 120 -47 l35 -7
-27 23 c-25 23 -28 36 -53 229 -14 113 -29 208 -33 212 -3 4 -17 -57 -31 -135z"/>
<path d="M361 350 c-12 -41 -26 -88 -32 -104 -15 -46 -12 -49 36 -43 75 8 110
58 64 91 -14 10 -26 34 -34 73 l-12 58 -22 -75z"/>
<path d="M4540 340 c0 -19 3 -21 12 -12 9 9 9 15 0 24 -9 9 -12 7 -12 -12z"/>
</g>
</svg>
