<?xml version="1.0" standalone="no"?>
<!DOCTYPE svg PUBLIC "-//W3C//DTD SVG 20010904//EN"
 "http://www.w3.org/TR/2001/REC-SVG-20010904/DTD/svg10.dtd">
<svg version="1.0" xmlns="http://www.w3.org/2000/svg"
 width="876.000000pt" height="698.000000pt" viewBox="0 0 876.000000 698.000000"
 preserveAspectRatio="xMidYMid meet">

<g transform="translate(0.000000,698.000000) scale(0.100000,-0.100000)"
fill="#000000" stroke="none">
<path d="M4280 4155 c0 -98 1 -105 20 -105 17 0 19 8 22 73 l3 72 59 -75 c40
-52 65 -75 80 -75 20 0 21 5 24 108 3 101 2 107 -17 107 -18 0 -20 -8 -23 -77
l-3 -78 -60 77 c-43 56 -66 78 -82 78 -22 0 -23 -3 -23 -105z"/>
<path d="M6815 4050 c-276 -37 -485 -279 -485 -560 0 -247 162 -466 400 -541
75 -24 216 -28 295 -10 90 22 192 78 259 144 230 227 233 581 6 808 -124 124
-300 182 -475 159z m219 -269 c202 -99 244 -367 81 -525 -66 -64 -137 -89
-240 -84 -57 3 -93 11 -123 27 -224 115 -245 419 -38 559 65 43 97 52 191 49
61 -2 92 -8 129 -26z"/>
<path d="M10 3490 l0 -541 328 3 327 3 56 26 c136 64 208 214 169 354 -17 60
-79 129 -147 163 l-54 28 44 31 c60 41 97 117 96 192 -1 111 -53 192 -155 242
l-69 34 -297 3 -298 3 0 -541z m541 324 c64 -33 73 -127 17 -181 -29 -28 -30
-28 -179 -31 l-149 -3 0 115 0 116 140 0 c108 0 148 -4 171 -16z m14 -425 c80
-22 120 -93 92 -162 -29 -68 -58 -77 -249 -77 l-168 0 0 125 0 125 143 0 c78
0 160 -5 182 -11z"/>
<path d="M1260 3491 l0 -541 115 0 115 0 0 200 0 201 107 -3 108 -3 139 -197
139 -198 144 0 c79 0 143 2 143 5 0 3 -77 107 -172 232 l-172 226 25 16 c43
27 96 88 120 137 35 72 34 197 -2 275 -33 71 -87 124 -158 158 -56 26 -56 26
-353 29 l-298 3 0 -540z m504 319 c22 -5 53 -22 69 -39 53 -52 38 -144 -30
-188 -22 -15 -54 -19 -170 -21 l-143 -4 0 124 c0 69 3 128 7 131 10 10 222 8
267 -3z"/>
<path d="M2610 3925 l0 -105 155 0 155 0 0 -330 0 -330 -155 0 -155 0 0 -105
0 -105 425 0 425 0 0 105 0 104 -152 3 -153 3 0 325 0 325 153 3 152 3 0 104
0 105 -425 0 -425 0 0 -105z"/>
<path d="M5290 3925 l0 -105 155 0 155 0 0 -435 0 -435 120 0 120 0 0 435 0
435 155 0 155 0 0 105 0 105 -430 0 -430 0 0 -105z"/>
<path d="M7750 3490 l0 -540 115 0 115 0 0 312 0 313 270 -270 c269 -269 270
-270 270 -312 l0 -43 115 0 115 0 0 540 0 540 -115 0 -115 0 0 -325 c0 -179
-3 -325 -8 -325 -4 0 -125 118 -270 263 l-262 262 0 63 0 62 -115 0 -115 0 0
-540z"/>
<path d="M3915 3940 l-80 -80 190 -190 190 -190 -190 -190 -190 -190 83 -82
82 -83 190 190 190 190 190 -190 190 -190 82 83 83 82 -190 190 -190 190 190
190 190 190 -83 82 -82 83 -190 -190 -190 -190 -188 188 c-103 103 -190 187
-192 187 -3 0 -41 -36 -85 -80z"/>
<path d="M3560 3588 c0 -2 15 -50 34 -108 27 -84 37 -106 54 -108 17 -3 24 8
42 63 12 36 24 64 27 61 2 -2 13 -31 23 -63 13 -43 23 -59 38 -61 22 -3 22 -4
63 117 34 100 34 101 10 101 -16 0 -25 -15 -42 -70 -13 -38 -25 -70 -28 -70
-4 0 -15 30 -26 68 -16 53 -25 67 -40 67 -15 0 -23 -14 -39 -67 -10 -38 -22
-68 -25 -68 -4 0 -17 32 -30 70 -17 55 -26 70 -42 70 -10 0 -19 -1 -19 -2z"/>
<path d="M4960 3480 l0 -100 80 0 c73 0 80 2 80 20 0 18 -7 20 -60 20 -57 0
-60 1 -60 25 0 23 3 25 50 25 38 0 50 4 50 15 0 11 -12 15 -50 15 -43 0 -50 3
-50 20 0 18 7 20 60 20 53 0 60 2 60 20 0 18 -7 20 -80 20 l-80 0 0 -100z"/>
<path d="M4343 2915 c-28 -12 -33 -19 -33 -48 0 -41 11 -51 70 -67 58 -15 74
-28 59 -46 -15 -18 -69 -18 -96 1 -21 15 -53 11 -53 -6 0 -17 65 -49 98 -49
59 0 92 26 92 71 0 34 -17 48 -77 63 -29 8 -49 19 -51 28 -5 24 31 31 71 14
36 -15 47 -12 47 10 0 31 -82 49 -127 29z"/>
<path d="M2116 2406 c-42 -16 -100 -67 -121 -106 -72 -137 35 -300 196 -300
89 1 180 59 208 133 25 66 6 164 -42 215 -54 59 -166 86 -241 58z m136 -98
c52 -26 62 -136 18 -183 -44 -47 -130 -41 -164 10 -41 62 -21 145 43 177 34
17 65 16 103 -4z"/>
<path d="M3256 2410 c-79 -25 -156 -120 -156 -193 0 -200 255 -294 388 -142
41 46 52 74 52 131 0 115 -83 200 -204 210 -28 2 -64 -1 -80 -6z m126 -102
c52 -26 62 -136 18 -183 -51 -55 -142 -39 -174 30 -22 46 -15 93 20 134 33 40
83 47 136 19z"/>
<path d="M4497 2408 c-60 -16 -126 -83 -142 -144 -25 -95 17 -195 100 -238 48
-25 180 -29 233 -7 30 13 32 17 32 62 0 27 -2 49 -5 49 -3 0 -16 -7 -29 -15
-58 -38 -167 -27 -206 22 -24 31 -26 92 -5 132 27 53 128 71 209 37 l36 -15 0
49 0 49 -52 16 c-58 17 -114 18 -171 3z"/>
<path d="M5647 2406 c-122 -45 -179 -170 -128 -281 22 -49 77 -99 126 -115 42
-14 156 -9 198 8 24 10 27 16 27 61 l0 50 -46 -21 c-72 -31 -137 -22 -182 27
-31 34 -34 42 -29 82 9 81 74 121 168 103 27 -5 58 -14 69 -20 19 -10 20 -7
20 40 0 46 -3 51 -27 61 -47 18 -154 21 -196 5z"/>
<path d="M7216 2410 c-64 -20 -102 -83 -85 -143 12 -44 41 -65 137 -101 51
-20 72 -33 72 -45 0 -55 -96 -55 -140 1 -16 19 -17 19 -57 -4 l-41 -23 20 -28
c30 -42 88 -67 153 -67 106 0 165 46 165 130 0 60 -21 80 -126 123 -61 25 -80
38 -82 55 -6 37 68 42 109 6 13 -11 20 -10 47 9 41 28 40 40 -3 67 -39 24
-125 34 -169 20z"/>
<path d="M1260 2205 l0 -205 55 0 55 0 0 133 1 132 63 -68 64 -68 58 65 59 66
5 -127 5 -128 53 -3 52 -3 0 205 0 206 -54 0 -54 0 -59 -69 c-32 -38 -61 -70
-64 -70 -4 -1 -33 31 -65 69 l-58 70 -58 0 -58 0 0 -205z"/>
<path d="M2590 2365 l0 -45 60 0 60 0 0 -160 0 -160 55 0 55 0 0 160 0 160 60
0 60 0 0 45 0 45 -175 0 -175 0 0 -45z"/>
<path d="M3780 2205 l0 -205 55 0 55 0 0 75 c0 68 2 75 20 75 13 0 37 -24 72
-75 l52 -75 69 0 c78 0 78 -7 0 94 -29 37 -53 71 -53 75 0 5 9 16 20 26 54 49
44 150 -19 192 -31 21 -46 23 -152 23 l-119 0 0 -205z m200 105 c11 -11 20
-24 20 -30 0 -23 -41 -50 -75 -50 -35 0 -35 0 -35 43 0 24 3 47 7 50 14 14 64
6 83 -13z"/>
<path d="M4980 2299 l80 -112 0 -93 0 -94 55 0 55 0 0 91 0 91 73 101 c40 56
76 108 81 115 5 9 -8 12 -57 12 l-65 0 -32 -49 c-51 -80 -53 -80 -100 -12
l-41 61 -64 0 -65 0 80 -111z"/>
<path d="M6110 2205 l0 -205 145 0 145 0 0 45 0 44 -92 3 -93 3 -3 158 -3 157
-49 0 -50 0 0 -205z"/>
<path d="M6610 2205 l0 -205 150 0 150 0 0 45 0 45 -95 0 -95 0 0 40 0 40 70
0 70 0 0 40 0 40 -70 0 -70 0 0 40 0 40 95 0 95 0 0 40 0 40 -150 0 -150 0 0
-205z"/>
</g>
</svg>
