<?xml version="1.0" standalone="no"?>
<!DOCTYPE svg PUBLIC "-//W3C//DTD SVG 20010904//EN"
 "http://www.w3.org/TR/2001/REC-SVG-20010904/DTD/svg10.dtd">
<svg version="1.0" xmlns="http://www.w3.org/2000/svg"
 width="107.000000pt" height="28.000000pt" viewBox="0 0 107.000000 28.000000"
 preserveAspectRatio="xMidYMid meet">

<g transform="translate(0.000000,28.000000) scale(0.100000,-0.100000)"
fill="#000000" stroke="none">
<path d="M45 235 c-26 -25 -33 -63 -14 -82 8 -8 7 -16 -2 -31 -20 -32 -1 -73
44 -96 34 -16 42 -17 73 -5 20 8 43 26 52 41 13 23 14 31 3 55 -13 26 -14 27
-22 8 -6 -16 -8 -14 -8 14 -1 28 1 31 13 22 19 -16 30 2 22 34 -17 66 -112 89
-161 40z m45 -93 c0 -31 4 -38 20 -38 16 0 20 7 20 38 0 27 4 38 15 38 11 0
15 -11 15 -37 0 -25 -3 -33 -9 -25 -6 10 -10 9 -14 -8 -6 -23 -35 -23 -78 0
-21 12 -21 14 -6 25 22 16 22 29 0 21 -15 -5 -15 -4 1 9 30 23 36 19 36 -23z"/>
</g>
</svg>
