<?xml version="1.0" standalone="no"?>
<!DOCTYPE svg PUBLIC "-//W3C//DTD SVG 20010904//EN"
 "http://www.w3.org/TR/2001/REC-SVG-20010904/DTD/svg10.dtd">
<svg version="1.0" xmlns="http://www.w3.org/2000/svg"
 width="900.000000pt" height="500.000000pt" viewBox="0 0 900.000000 500.000000"
 preserveAspectRatio="xMidYMid meet">

<g transform="translate(0.000000,500.000000) scale(0.100000,-0.100000)"
fill="#000000" stroke="none">
<path d="M842 3264 c-337 -61 -568 -285 -636 -616 -9 -42 -16 -99 -16 -126 l0
-48 64 -15 63 -16 6 91 c8 116 26 180 78 285 71 144 215 266 379 322 101 34
260 38 375 9 173 -43 309 -138 407 -284 23 -34 42 -62 43 -63 2 -4 75 18 75
22 0 11 -67 115 -102 160 -113 144 -307 255 -495 284 -89 14 -147 13 -241 -5z"/>
<path d="M2146 3063 c-3 -16 -47 -269 -96 -563 -50 -294 -94 -545 -97 -557
l-5 -23 140 0 c137 0 140 0 145 23 3 12 22 120 43 240 21 119 40 217 44 217 3
0 66 -106 140 -236 73 -130 138 -238 144 -240 7 -3 87 -3 179 -2 l167 3 -170
287 c-93 158 -170 292 -170 298 0 6 124 139 276 296 l276 284 -176 0 -176 0
-132 -137 c-269 -279 -317 -327 -322 -323 -2 3 10 91 28 195 18 105 36 207 39
228 l6 37 -139 0 -138 0 -6 -27z"/>
<path d="M3316 3063 c-3 -10 -12 -61 -21 -113 -8 -52 -18 -107 -21 -122 l-6
-28 886 0 886 0 5 23 c2 12 12 67 20 122 9 55 19 108 21 118 5 16 -42 17 -880
17 -834 0 -885 -1 -890 -17z"/>
<path d="M5184 3043 c3 -21 30 -202 60 -403 30 -201 67 -445 82 -543 l28 -177
159 2 160 3 142 345 c79 189 147 351 152 360 7 10 14 -21 22 -100 43 -406 62
-568 66 -587 5 -23 8 -23 163 -23 l157 0 155 333 c84 182 207 443 271 580
l117 247 -147 0 -148 0 -123 -282 c-154 -353 -211 -476 -216 -463 -4 11 -84
707 -84 731 0 11 -28 14 -157 14 l-158 0 -53 -133 c-103 -252 -257 -617 -262
-617 -4 0 -49 365 -87 698 l-6 52 -149 0 -150 0 6 -37z"/>
<path d="M7139 3008 c-23 -40 -88 -152 -144 -248 -56 -96 -187 -321 -290 -500
-103 -179 -189 -328 -192 -333 -2 -4 64 -6 148 -5 l152 3 67 125 67 125 216 3
215 2 24 -127 25 -128 156 -3 c123 -2 156 0 152 10 -2 7 -45 182 -94 388 -49
206 -111 462 -136 568 l-47 192 -138 0 -139 0 -42 -72z m155 -416 c14 -67 26
-129 26 -137 0 -12 -19 -15 -110 -15 -60 0 -110 2 -110 5 0 7 41 89 103 204
33 62 52 89 57 80 4 -8 19 -69 34 -137z"/>
<path d="M7693 3033 c14 -27 85 -172 160 -323 l135 -275 -33 -200 c-18 -110
-36 -226 -40 -257 l-7 -58 138 0 139 0 42 250 42 249 177 223 c98 123 218 271
266 331 l88 107 -158 0 -158 0 -127 -157 c-181 -225 -184 -229 -195 -218 -6 6
-42 82 -82 170 -39 88 -78 170 -86 183 -14 21 -20 22 -169 22 l-155 0 23 -47z"/>
<path d="M566 2735 c27 -32 61 -71 76 -87 l26 -28 204 0 c198 0 392 16 543 45
39 7 72 11 74 9 11 -10 -207 -263 -360 -415 -101 -101 -124 -130 -117 -143 8
-14 17 -10 71 31 128 99 379 362 552 577 l39 49 -38 -7 c-160 -30 -530 -44
-731 -27 -138 12 -332 37 -369 48 -13 4 -3 -14 30 -52z"/>
<path d="M1690 2705 c-24 -26 -25 -30 -25 -188 0 -151 -2 -167 -27 -235 -74
-202 -217 -345 -417 -416 -109 -38 -278 -48 -382 -22 -73 19 -172 63 -233 104
l-41 28 -54 -34 -54 -34 29 -23 c52 -43 168 -103 249 -132 73 -25 93 -27 225
-28 125 0 155 3 220 23 277 88 475 292 546 567 23 88 25 307 3 373 l-14 44
-25 -27z"/>
<path d="M3255 2608 c-2 -7 -31 -164 -63 -348 l-58 -335 385 -3 c211 -1 386
-1 388 2 2 2 13 57 24 122 11 66 22 127 25 137 5 16 -11 17 -246 17 -235 0
-251 1 -246 18 2 9 7 33 11 52 14 77 -10 70 260 70 223 0 244 1 249 18 3 9 12
60 21 112 8 52 18 107 21 123 l6 27 -387 0 c-299 0 -387 -3 -390 -12z"/>
<path d="M4265 2608 c-10 -33 -38 -185 -75 -403 -23 -132 -44 -250 -47 -262
l-5 -23 389 0 389 0 22 133 c12 72 22 135 22 140 0 4 -110 7 -245 7 l-245 0 6
43 c4 23 10 53 14 67 l6 25 246 3 246 2 6 28 c3 15 12 68 21 117 9 50 18 100
21 113 l4 22 -385 0 c-300 0 -387 -3 -390 -12z"/>
<path d="M382 2583 c2 -5 20 -34 41 -65 l39 -57 66 -8 c101 -12 354 -6 492 12
67 8 124 14 126 12 2 -1 -28 -39 -66 -82 -59 -69 -120 -126 -338 -320 -23 -21
-31 -35 -27 -48 6 -15 16 -11 74 30 104 73 193 146 292 241 88 83 243 252 237
258 -2 1 -51 -4 -108 -13 -209 -30 -543 -18 -738 28 -95 22 -95 22 -90 12z"/>
<path d="M195 2384 c4 -27 8 -50 9 -51 11 -12 185 -27 366 -32 l224 -6 -64
-63 c-36 -35 -125 -109 -197 -164 -73 -56 -133 -104 -133 -109 0 -22 26 -13
109 39 133 82 288 201 384 293 64 62 77 78 57 75 -69 -13 -268 -16 -370 -6
-101 10 -300 45 -369 66 -23 7 -24 6 -16 -42z"/>
<path d="M225 2258 c13 -46 74 -164 107 -210 l34 -48 50 31 c27 17 51 33 53
35 2 2 -8 19 -23 39 -15 19 -40 64 -57 99 l-30 63 -52 7 c-85 10 -89 9 -82
-16z"/>
</g>
</svg>
