<?xml version="1.0" standalone="no"?>
<!DOCTYPE svg PUBLIC "-//W3C//DTD SVG 20010904//EN"
 "http://www.w3.org/TR/2001/REC-SVG-20010904/DTD/svg10.dtd">
<svg version="1.0" xmlns="http://www.w3.org/2000/svg"
 width="328.000000pt" height="128.000000pt" viewBox="0 0 328.000000 128.000000"
 preserveAspectRatio="xMidYMid meet">

<g transform="translate(0.000000,128.000000) scale(0.100000,-0.100000)"
fill="#000000" stroke="none">
<path d="M470 984 c-52 -31 -104 -60 -115 -65 -11 -5 -45 -24 -75 -42 l-55
-33 0 -208 0 -207 173 -100 c122 -71 179 -98 193 -94 11 4 50 25 87 47 37 23
87 50 112 61 54 24 120 65 138 86 9 11 12 69 12 212 l0 197 -65 41 c-35 23
-68 41 -72 41 -5 0 -53 27 -108 60 -55 33 -107 60 -115 60 -8 -1 -58 -26 -110
-56z m255 -169 c124 -65 165 -111 165 -182 0 -44 -48 -110 -92 -128 -51 -20
-66 -19 -121 9 l-47 23 0 -67 c0 -62 -2 -68 -25 -78 -19 -9 -31 -9 -50 0 -25
11 -32 38 -27 111 2 32 -3 33 -49 10 -41 -21 -98 -23 -131 -5 -14 8 -37 32
-52 55 -22 34 -27 50 -23 84 7 64 42 102 153 163 55 29 112 64 127 77 l28 23
37 -29 c20 -16 69 -46 107 -66z"/>
<path d="M455 708 c-99 -50 -116 -74 -71 -103 23 -15 27 -14 79 12 53 27 55
29 58 76 2 26 2 47 -1 47 -3 -1 -32 -15 -65 -32z"/>
<path d="M630 695 l0 -45 61 -30 c58 -30 62 -30 85 -15 14 9 24 24 22 33 -3
14 -140 102 -160 102 -5 0 -8 -20 -8 -45z"/>
<path d="M1276 762 c-2 -4 -1 -14 5 -22 5 -8 9 -63 9 -122 l0 -108 30 0 c28 0
30 2 30 39 0 37 2 39 38 45 20 3 49 6 64 6 38 0 88 45 88 79 0 33 -34 68 -81
81 -41 12 -176 13 -183 2z m187 -59 c4 -2 7 -13 7 -24 0 -23 -35 -39 -86 -39
-33 0 -34 1 -34 41 l0 41 53 -7 c28 -4 55 -9 60 -12z"/>
<path d="M1590 636 l0 -133 25 5 25 4 0 129 0 129 -25 0 -25 0 0 -134z"/>
<path d="M1786 738 c-7 -18 -29 -67 -48 -108 -54 -116 -55 -120 -20 -120 21 0
32 7 40 25 11 23 17 25 82 25 65 0 71 -2 82 -25 8 -18 19 -25 39 -25 l29 0
-19 48 c-10 26 -35 83 -54 127 -35 80 -36 80 -76 83 -37 3 -41 1 -55 -30z m85
-74 c11 -26 18 -49 15 -51 -2 -2 -24 -3 -49 -1 l-46 3 21 48 c11 26 25 47 30
47 5 0 18 -21 29 -46z"/>
<path d="M2095 762 c-30 -10 -60 -34 -73 -59 -15 -27 -15 -105 -1 -135 26 -56
114 -81 208 -58 l51 12 0 65 0 64 -52 -3 c-46 -3 -53 -6 -56 -25 -3 -20 1 -23
27 -23 21 0 31 -5 31 -15 0 -37 -92 -47 -134 -14 -21 16 -26 29 -26 63 0 61
24 79 110 84 67 4 90 17 74 43 -6 10 -128 11 -159 1z"/>
<path d="M2402 753 c-48 -23 -66 -57 -66 -118 0 -97 57 -141 170 -132 93 7
104 16 104 87 l0 60 -55 0 c-52 0 -55 -1 -55 -25 0 -20 5 -25 24 -25 33 0 44
-20 21 -37 -32 -23 -102 -17 -130 12 -31 30 -33 83 -6 116 17 21 29 24 92 26
54 1 75 5 81 17 5 9 6 21 3 26 -10 17 -146 11 -183 -7z"/>
<path d="M2670 640 l0 -130 25 0 25 0 0 130 0 130 -25 0 -25 0 0 -130z"/>
<path d="M2844 760 c-43 -17 -64 -58 -64 -126 0 -56 3 -68 29 -96 25 -28 35
-32 94 -36 76 -5 132 11 153 43 8 12 17 44 20 71 8 68 -14 120 -60 139 -38 16
-138 19 -172 5z m150 -56 c28 -27 24 -111 -6 -136 -25 -22 -96 -24 -126 -2
-18 12 -22 25 -22 69 0 44 4 57 22 69 30 21 112 21 132 0z"/>
<path d="M3110 755 c0 -2 7 -8 15 -15 12 -10 15 -10 15 2 0 8 -7 15 -15 15 -8
0 -15 -1 -15 -2z"/>
</g>
</svg>
