<?xml version="1.0" standalone="no"?>
<!DOCTYPE svg PUBLIC "-//W3C//DTD SVG 20010904//EN"
 "http://www.w3.org/TR/2001/REC-SVG-20010904/DTD/svg10.dtd">
<svg version="1.0" xmlns="http://www.w3.org/2000/svg"
 width="491.000000pt" height="488.000000pt" viewBox="0 0 491.000000 488.000000"
 preserveAspectRatio="xMidYMid meet">

<g transform="translate(0.000000,488.000000) scale(0.100000,-0.100000)"
fill="#000000" stroke="none">
<path d="M1611 4784 c-178 -60 -465 -230 -640 -376 -387 -327 -617 -719 -703
-1198 -8 -48 -13 -150 -12 -280 0 -182 3 -219 27 -330 109 -515 404 -941 867
-1252 98 -66 409 -228 437 -228 19 0 16 -14 -9 -36 -70 -62 -99 -162 -57 -200
20 -18 45 -19 388 -24 201 -3 358 -7 349 -8 -10 -1 -18 -6 -18 -12 0 -6 35
-10 84 -10 70 0 88 4 117 23 34 23 34 23 60 4 31 -22 114 -33 217 -29 58 3 72
7 68 18 -5 12 39 14 290 14 313 0 350 5 373 48 24 46 6 123 -45 190 -14 18
-24 35 -23 36 2 2 38 18 79 36 141 62 328 172 453 268 33 25 70 45 83 45 17 0
23 4 20 13 -3 8 0 11 8 8 17 -7 149 117 243 230 182 216 318 475 388 736 190
709 -58 1468 -632 1934 -108 89 -176 136 -171 119 2 -4 0 -9 -5 -11 -7 -2 -21
5 -98 54 -169 106 -519 244 -618 244 -39 0 -43 -3 -58 -37 -11 -28 -14 -55 -9
-102 5 -62 5 -63 -17 -57 -72 21 -196 46 -292 61 -73 11 -114 22 -122 33 -11
13 -39 15 -180 15 -149 -1 -298 -15 -312 -29 -3 -3 1 -10 9 -15 12 -9 12 -10
-3 -5 -10 3 -21 6 -23 6 -3 0 -2 5 1 10 3 6 2 10 -4 10 -5 0 -14 -7 -18 -15
-6 -9 -63 -29 -143 -49 -74 -19 -148 -40 -164 -46 -16 -6 -31 -9 -33 -7 -2 3
1 33 6 68 17 101 -8 160 -66 159 -10 0 -51 -12 -92 -26z m-89 -146 c3 -7 -10
-64 -28 -128 -19 -63 -33 -122 -34 -131 0 -12 13 -19 48 -24 82 -11 92 -16 92
-39 0 -15 -15 -29 -53 -50 -91 -51 -224 -146 -314 -224 l-86 -75 -98 -5 c-97
-5 -98 -4 -103 19 -14 58 -35 273 -28 284 20 33 195 172 317 251 90 58 237
133 262 134 12 0 23 -5 25 -12z m2042 -41 c136 -72 233 -136 341 -222 142
-114 132 -90 112 -262 -18 -150 -25 -168 -62 -158 -11 2 -50 5 -87 5 l-67 0
-73 66 c-97 89 -207 170 -307 228 -104 60 -105 75 -6 95 39 7 72 15 74 16 1 2
-14 61 -34 130 -20 69 -34 133 -31 141 9 24 35 16 140 -39z m-854 24 c28 -5
-65 -9 -244 -9 -159 -1 -287 1 -284 3 22 22 414 26 528 6z m-46 -86 c55 -8
102 -18 105 -21 3 -3 -42 -2 -99 3 -127 9 -259 10 -400 1 -74 -5 -95 -4 -72 3
103 30 316 37 466 14z m-507 -31 c-3 -3 -12 -4 -19 -1 -8 3 -5 6 6 6 11 1 17
-2 13 -5z m1723 2 c0 -3 -4 -8 -10 -11 -5 -3 -10 -1 -10 4 0 6 5 11 10 11 6 0
10 -2 10 -4z m-1133 -62 c372 -53 728 -228 983 -484 573 -573 584 -1426 25
-2009 -339 -354 -841 -549 -1359 -528 -78 3 -181 13 -231 22 -119 21 -315 75
-315 87 0 5 -3 7 -7 5 -5 -3 -21 1 -38 8 -27 13 -28 14 -5 10 14 -1 72 -17
130 -34 354 -106 762 -101 1110 15 464 154 834 487 999 899 188 469 109 972
-217 1380 -147 185 -319 321 -547 434 -252 125 -470 180 -751 188 -237 8 -394
-12 -617 -78 -56 -17 -111 -33 -122 -35 -40 -10 11 15 81 40 277 97 571 124
881 80z m-1893 -431 l8 -142 62 6 c92 10 108 9 118 -8 8 -12 -1 -31 -41 -85
-72 -99 -131 -207 -175 -318 l-38 -95 -56 -21 c-108 -41 -96 -47 -196 104 -87
134 -88 136 -76 168 55 137 188 352 305 491 27 33 46 47 60 45 18 -3 21 -14
29 -145z m3359 55 c41 -51 94 -122 118 -158 55 -83 159 -286 159 -313 0 -31
-166 -277 -187 -277 -10 0 -47 12 -84 26 -62 24 -67 29 -79 68 -22 75 -120
263 -180 348 -33 46 -60 92 -60 102 0 18 6 19 95 12 l95 -6 0 125 c0 126 8
165 35 165 8 0 48 -42 88 -92z m-1038 -221 c265 -83 448 -247 544 -489 86
-216 78 -485 -21 -681 -113 -225 -311 -387 -565 -463 -125 -37 -309 -44 -443
-16 -103 21 -217 65 -293 112 l-47 30 37 50 c36 48 56 60 67 41 10 -15 127
-68 206 -93 64 -20 96 -23 220 -23 124 0 156 3 220 23 188 60 327 161 426 310
130 195 153 464 59 679 -84 190 -286 361 -487 412 -67 17 -136 19 -828 22
l-754 4 -72 -290 c-39 -159 -74 -305 -77 -322 l-6 -33 54 0 c45 0 60 5 87 28
223 191 575 118 706 -147 35 -72 37 -80 37 -176 0 -97 -2 -104 -38 -177 -115
-234 -410 -319 -644 -187 -72 41 -157 136 -182 204 -12 31 -21 60 -21 65 0 6
33 10 73 10 l74 0 18 -41 c24 -53 103 -123 162 -143 26 -9 78 -16 117 -16 166
0 297 123 297 279 1 83 -18 136 -69 193 -112 124 -294 143 -425 43 l-46 -35
-185 0 c-180 0 -186 1 -186 20 0 12 22 109 49 218 28 108 71 285 96 392 25
107 48 203 51 213 5 17 46 18 852 15 l847 -3 90 -28z m-139 -163 c125 -26 278
-113 365 -208 54 -58 116 -160 144 -236 37 -99 46 -271 21 -370 -101 -397
-535 -622 -942 -488 -67 22 -165 75 -171 93 -1 6 1 16 6 23 6 10 25 4 83 -28
200 -107 447 -109 651 -3 144 74 275 235 323 398 24 81 24 239 0 320 -62 207
-219 368 -431 441 -72 26 -93 28 -215 28 -122 0 -143 -2 -215 -28 -44 -15
-105 -42 -135 -59 -54 -30 -192 -159 -221 -205 -13 -21 -16 -22 -33 -9 -19 14
-18 16 16 63 170 230 456 332 754 268z m-532 7 c3 -5 -23 -27 -58 -50 -67 -44
-190 -165 -221 -217 l-18 -31 -66 35 c-36 19 -65 39 -63 45 2 6 16 27 31 46
15 20 31 42 35 49 6 9 -41 12 -218 12 l-225 0 -10 -38 c-6 -21 -13 -52 -17
-69 l-6 -30 119 0 c139 1 211 -15 324 -74 143 -74 259 -208 311 -357 33 -95
33 -265 0 -369 -57 -182 -218 -338 -417 -405 -60 -20 -89 -23 -210 -23 -126 1
-147 3 -213 27 -105 38 -176 83 -257 163 -74 73 -133 171 -155 255 -6 25 -13
53 -16 63 -5 15 3 17 64 17 l69 0 23 -62 c58 -161 187 -280 351 -323 72 -20
212 -19 280 1 220 65 369 254 369 468 -1 135 -40 233 -132 332 -95 101 -241
163 -384 164 -68 0 -188 -32 -263 -69 -75 -39 -74 -47 -22 171 21 90 45 189
52 221 l12 57 463 0 c259 0 465 -4 468 -9z m530 -71 c119 -30 209 -82 302
-175 93 -93 145 -185 170 -305 45 -214 -43 -453 -219 -589 -67 -51 -181 -107
-260 -128 -84 -22 -233 -21 -324 1 -99 25 -217 85 -221 114 -2 12 -1 22 1 22
3 0 35 -18 72 -39 131 -77 324 -104 470 -66 219 56 396 233 446 445 44 192
-28 416 -178 549 -246 220 -632 211 -864 -19 -36 -36 -75 -78 -87 -95 -14 -21
-24 -27 -31 -20 -16 16 45 101 116 163 160 142 395 197 607 142z m-34 -42 c30
-5 93 -28 139 -50 110 -53 220 -159 270 -263 154 -319 -16 -678 -373 -787
-105 -32 -253 -30 -361 6 -98 32 -175 79 -175 105 0 30 15 33 43 11 72 -57
214 -100 330 -100 157 0 280 52 392 165 208 210 208 513 0 720 -173 172 -429
213 -650 104 -73 -36 -167 -117 -210 -180 -16 -24 -31 -46 -32 -48 -2 -3 -11
3 -20 12 -16 15 -14 20 22 73 68 99 189 186 308 221 104 31 194 34 317 11z
m15 -64 c163 -40 316 -184 366 -344 25 -80 27 -207 5 -281 -80 -278 -408 -443
-691 -349 -96 32 -169 80 -173 113 -2 15 -1 27 2 27 3 0 31 -18 62 -40 113
-79 271 -107 408 -71 129 34 225 103 296 213 106 162 89 393 -37 538 -98 111
-229 170 -382 170 -182 0 -333 -81 -428 -228 -33 -51 -53 -60 -53 -23 0 29 53
103 114 158 134 123 316 164 511 117z m-35 -55 c127 -29 254 -129 310 -243
105 -212 32 -449 -175 -571 -172 -102 -376 -92 -540 26 -31 23 -45 40 -45 56
0 30 4 29 53 -12 134 -115 337 -137 499 -54 65 33 145 120 181 196 29 62 32
76 32 168 0 91 -3 106 -31 165 -81 171 -276 273 -461 240 -142 -24 -285 -126
-329 -234 -21 -50 -29 -56 -39 -27 -14 45 82 171 176 232 27 17 75 39 107 50
64 20 191 24 262 8z m1559 -3 c16 -19 49 -153 66 -268 8 -54 15 -160 15 -236
0 -159 7 -144 -105 -209 -160 -92 -195 -108 -195 -85 0 4 -13 21 -28 37 -74
80 -72 75 -72 229 0 129 -6 199 -25 297 -9 51 10 55 92 19 38 -16 71 -26 75
-22 3 4 34 59 69 122 73 134 84 145 108 116z m-4063 -54 c17 -31 48 -87 68
-124 l37 -67 74 32 c98 40 103 36 85 -75 -7 -46 -14 -151 -14 -235 l-1 -151
-53 -66 c-29 -36 -59 -66 -67 -66 -8 0 -72 34 -142 75 -87 51 -130 82 -135 98
-18 63 -4 302 28 461 28 139 42 176 67 176 16 0 30 -14 53 -58z m-18 -756
c125 -87 154 -106 162 -106 4 0 26 27 50 61 42 60 64 71 81 39 4 -8 21 -61 38
-117 17 -56 58 -155 90 -219 l58 -117 -27 -86 c-18 -58 -31 -87 -43 -89 -20
-4 -275 47 -300 59 -56 31 -217 463 -217 585 0 59 11 58 108 -10z m4138 39 c3
-8 -1 -52 -11 -97 -38 -195 -171 -512 -217 -522 -201 -44 -291 -57 -303 -44
-7 7 -23 48 -35 91 l-21 78 45 88 c52 102 95 209 121 304 24 88 45 90 101 12
21 -30 42 -55 45 -55 3 0 57 36 120 80 115 80 145 92 155 65z m-3551 -644 c38
-56 216 -226 311 -298 l81 -62 7 -72 c5 -53 3 -76 -6 -85 -8 -7 -80 -17 -190
-24 l-177 -13 -48 36 c-72 53 -262 251 -332 345 -94 129 -88 135 81 88 177
-50 159 -53 179 31 9 39 20 76 24 82 13 22 43 10 70 -28z m2935 -3 c6 -24 16
-60 21 -80 5 -21 15 -38 22 -38 6 0 69 16 140 37 113 32 130 34 143 21 13 -13
10 -21 -25 -74 -61 -91 -209 -252 -310 -338 l-91 -77 -167 11 c-231 15 -213 9
-212 78 2 93 8 105 84 162 116 88 209 175 276 259 77 96 102 104 119 39z
m-2303 -58 c18 -47 33 -86 33 -87 0 -11 -52 0 -56 12 -8 20 -64 19 -78 -1 -7
-9 -21 -14 -32 -12 -19 3 -18 7 14 91 32 81 36 88 60 85 22 -3 30 -15 59 -88z
m136 38 l32 -53 3 53 c3 44 6 52 23 52 17 0 19 -7 19 -90 0 -88 0 -90 -24 -90
-18 0 -32 12 -53 45 -15 25 -30 45 -33 45 -3 0 -4 -20 -2 -45 4 -43 3 -45 -22
-45 l-26 0 0 90 c0 89 0 90 25 90 20 0 32 -12 58 -52z m202 -1 l30 -52 3 53
c3 48 5 52 28 52 24 0 24 -1 24 -90 l0 -90 -28 0 c-22 0 -33 10 -60 52 l-32
53 0 -53 c0 -49 -2 -52 -25 -52 -25 0 -25 1 -25 90 l0 90 28 0 c22 0 32 -9 57
-53z m165 -37 c0 -83 -1 -90 -20 -90 -19 0 -20 7 -20 90 0 83 1 90 20 90 19 0
20 -7 20 -90z m88 33 c8 -29 17 -53 21 -53 3 0 13 24 21 53 12 41 20 53 38 55
29 4 28 -7 -7 -98 -24 -61 -34 -76 -53 -78 -21 -3 -26 6 -55 88 l-33 91 27 -3
c23 -3 29 -11 41 -55z m272 37 c0 -17 -7 -20 -50 -20 -38 0 -50 -4 -50 -15 0
-11 12 -15 45 -15 39 0 45 -3 45 -21 0 -15 -6 -20 -22 -19 -48 4 -68 0 -68
-15 0 -15 6 -17 65 -19 20 -1 31 -7 33 -19 3 -16 -4 -18 -70 -15 l-73 3 -2 75
c-1 41 0 81 2 88 3 8 27 12 75 12 63 0 70 -2 70 -20z m170 2 c19 -15 22 -24
15 -48 -8 -30 -8 -51 1 -91 4 -19 0 -23 -20 -23 -21 0 -25 6 -28 33 -2 27 -8
33 -30 35 -26 3 -28 1 -28 -32 0 -32 -3 -36 -25 -36 -25 0 -25 1 -25 90 l0 90
59 0 c42 0 65 -5 81 -18z m181 -3 c17 -17 19 -23 8 -30 -8 -5 -23 -2 -36 6
-28 19 -53 19 -53 1 0 -7 23 -23 50 -34 44 -19 50 -24 50 -51 0 -37 -26 -54
-82 -53 -45 1 -68 16 -68 43 0 23 35 26 44 3 4 -10 15 -14 33 -12 44 5 36 22
-20 43 -40 15 -53 26 -55 43 -8 57 84 86 129 41z m183 -56 c16 -43 31 -84 33
-90 3 -8 -4 -13 -20 -13 -14 0 -27 7 -31 15 -3 9 -19 15 -41 15 -24 0 -35 -4
-35 -15 0 -9 -10 -15 -26 -15 -17 0 -25 5 -22 13 3 6 18 47 34 90 25 68 32 77
54 77 23 0 29 -9 54 -77z m190 67 c20 -7 26 -17 26 -39 0 -16 -5 -33 -10 -36
-7 -4 -7 -12 0 -25 5 -10 10 -30 10 -44 0 -21 -5 -26 -24 -26 -21 0 -25 6 -28
33 -2 27 -8 33 -30 35 -26 3 -28 1 -28 -33 0 -32 -3 -36 -22 -33 -20 3 -23 9
-21 43 1 22 2 61 2 88 l1 47 49 0 c27 0 61 -4 75 -10z m110 -25 c8 -19 17 -35
20 -35 3 0 12 16 20 35 12 27 21 35 40 35 15 0 26 -2 26 -5 0 -3 -13 -27 -30
-53 -19 -31 -30 -63 -30 -86 0 -32 -3 -36 -25 -36 -22 0 -25 4 -25 36 0 23
-11 55 -30 86 -16 26 -30 50 -30 53 0 3 11 5 25 5 19 0 28 -8 39 -35z m-1756
-454 c78 -39 272 -112 349 -131 38 -9 45 -17 88 -90 26 -44 45 -87 43 -96 -3
-17 -222 -163 -244 -164 -14 0 -224 71 -277 94 -202 88 -390 197 -385 224 3
15 24 17 175 20 l172 2 -5 28 c-20 114 -22 128 -12 139 14 17 7 19 96 -26z
m1807 -1 c-1 -19 -5 -59 -9 -87 l-8 -53 170 0 c140 0 171 -3 176 -15 3 -8 -2
-21 -10 -30 -36 -36 -259 -153 -391 -206 -86 -34 -227 -79 -258 -81 -23 -2
-255 140 -255 155 0 23 95 169 114 177 12 4 66 22 121 39 56 18 150 56 210 86
61 29 117 53 125 52 10 -2 15 -14 15 -37z m-1660 -18 c-3 -3 -11 0 -18 7 -9
10 -8 11 6 5 10 -3 15 -9 12 -12z m440 -163 c39 -5 104 -10 145 -11 64 -1 77
-5 99 -26 l24 -24 16 21 c13 17 34 22 121 31 58 5 130 13 161 16 76 9 79 -6
22 -91 -25 -37 -41 -70 -36 -74 5 -3 107 -69 226 -145 119 -76 217 -144 217
-151 0 -22 -38 -25 -310 -25 -212 0 -270 3 -286 14 -11 8 -44 55 -73 105 -30
50 -57 91 -60 91 -3 0 -28 -39 -56 -86 -27 -47 -57 -92 -65 -99 -13 -12 -72
-15 -308 -15 -160 -1 -296 2 -302 5 -19 12 1 26 230 170 121 76 220 143 220
147 0 5 -19 35 -41 68 -26 35 -39 65 -36 74 7 19 3 18 92 5z"/>
<path d="M1606 1995 c-10 -26 -7 -35 9 -35 17 0 19 18 6 38 -7 11 -10 10 -15
-3z"/>
<path d="M2620 2009 c0 -16 5 -20 27 -17 17 2 29 10 31 21 3 13 -3 17 -27 17
-25 0 -31 -4 -31 -21z"/>
<path d="M3010 2003 c0 -6 -3 -18 -6 -27 -4 -12 0 -16 15 -16 12 0 21 4 21 8
0 13 -29 48 -30 35z"/>
<path d="M3180 2010 c0 -18 5 -21 33 -18 20 2 32 8 32 18 0 10 -12 16 -32 18
-28 3 -33 0 -33 -18z"/>
<path d="M2645 4710 c3 -5 11 -10 16 -10 6 0 7 5 4 10 -3 6 -11 10 -16 10 -6
0 -7 -4 -4 -10z"/>
<path d="M3980 1470 c-8 -5 -12 -12 -9 -15 4 -3 12 1 19 10 14 17 11 19 -10 5z"/>
<path d="M619 560 c-67 -12 -118 -39 -134 -71 -22 -41 -19 -137 5 -176 27 -45
106 -68 212 -60 l78 5 0 -27 c0 -38 -17 -51 -68 -51 -35 0 -45 4 -49 20 -5 18
-14 20 -94 20 l-89 0 0 -55 c0 -54 0 -54 38 -65 185 -51 394 -25 430 55 8 16
12 82 12 174 0 168 -6 185 -79 214 -47 19 -198 29 -262 17z m247 -35 c58 -24
64 -43 64 -208 0 -143 -1 -149 -24 -172 -37 -37 -96 -48 -226 -42 -146 6 -170
15 -170 62 l0 35 56 0 c41 0 63 -5 81 -20 17 -13 41 -20 70 -20 60 0 93 32 93
91 0 38 -2 41 -22 34 -13 -4 -61 -9 -108 -12 -132 -7 -180 27 -180 129 0 90
31 122 135 139 63 10 190 1 231 -16z"/>
<path d="M656 459 c-33 -26 -36 -79 -6 -109 48 -48 160 -12 160 51 0 69 -94
105 -154 58z m104 -19 c40 -40 15 -90 -45 -90 -36 0 -55 20 -55 59 0 48 63 68
100 31z"/>
<path d="M1169 560 c-60 -10 -105 -34 -126 -67 -15 -23 -18 -51 -18 -173 0
-170 7 -189 83 -223 38 -16 68 -21 152 -21 186 -2 250 35 258 144 6 82 -9 114
-67 142 -48 23 -142 31 -208 16 -32 -7 -33 -7 -33 26 0 43 19 58 67 54 28 -2
41 -9 48 -25 9 -21 16 -23 97 -23 l88 0 0 60 0 59 -37 10 c-102 28 -218 35
-304 21z m254 -32 l57 -11 0 -43 0 -44 -55 0 c-44 0 -59 4 -79 25 -33 33 -115
36 -146 5 -28 -28 -30 -126 -2 -115 69 27 189 26 244 -1 37 -19 48 -43 48
-108 0 -44 -5 -60 -26 -85 -33 -39 -77 -51 -194 -51 -113 0 -158 11 -191 46
-23 25 -24 29 -21 172 3 155 10 179 54 203 53 28 181 31 311 7z"/>
<path d="M1200 280 c-47 -47 -4 -120 70 -120 74 0 117 73 70 120 -15 15 -33
20 -70 20 -37 0 -55 -5 -70 -20z m123 -21 c29 -46 -24 -93 -82 -73 -30 11 -41
55 -20 80 16 20 88 15 102 -7z"/>
<path d="M2920 564 c-47 -6 -119 -22 -152 -36 -27 -10 -28 -13 -28 -79 l0 -69
90 0 90 0 0 30 c0 40 40 67 78 54 17 -6 27 -17 27 -29 0 -15 -30 -36 -123 -85
-163 -88 -166 -91 -170 -190 l-4 -80 246 0 246 0 0 80 0 80 -95 0 c-93 0 -95
0 -95 -24 0 -26 -21 -36 -78 -36 -55 0 -34 21 84 81 60 31 126 72 147 91 32
30 37 41 37 80 0 57 -37 101 -96 116 -48 13 -157 21 -204 16z m191 -34 c47
-13 69 -39 76 -87 7 -56 -19 -82 -162 -162 -65 -36 -123 -74 -129 -83 -19 -31
5 -41 79 -33 57 6 68 10 77 31 10 22 17 24 75 24 l63 0 0 -60 0 -60 -215 0
-215 0 0 59 c0 79 16 96 158 171 139 73 147 80 138 114 -4 18 -17 28 -45 37
-53 16 -114 -12 -119 -53 -3 -27 -6 -28 -56 -28 l-53 0 -7 46 c-7 57 2 70 57
83 57 12 234 13 278 1z"/>
<path d="M3450 559 c-71 -9 -99 -21 -130 -54 -25 -26 -25 -30 -25 -190 0 -159
1 -164 24 -189 34 -36 109 -56 211 -56 109 0 180 20 214 61 25 30 26 34 26
183 0 158 -5 179 -50 213 -38 29 -170 45 -270 32z m228 -39 c26 -12 46 -29 52
-45 6 -15 10 -88 10 -163 0 -152 -5 -168 -63 -200 -46 -25 -248 -25 -294 0
-58 32 -63 48 -63 200 0 159 7 183 65 209 58 27 233 26 293 -1z"/>
<path d="M3464 456 c-17 -13 -19 -27 -19 -136 0 -116 1 -123 24 -141 30 -25
92 -25 122 0 22 18 24 27 27 134 3 106 2 117 -17 136 -25 25 -106 29 -137 7z
m116 -25 c5 -11 10 -63 10 -116 0 -118 -7 -135 -60 -135 -53 0 -60 17 -60 135
0 118 7 135 60 135 29 0 42 -5 50 -19z"/>
<path d="M30 510 c0 -38 4 -50 15 -50 13 0 15 -22 15 -140 0 -118 -2 -140 -15
-140 -11 0 -15 -12 -15 -50 l0 -51 128 3 127 3 3 42 c3 34 -1 44 -17 53 -20
10 -21 19 -21 195 l0 185 -110 0 -110 0 0 -50z m190 -149 c0 -146 3 -181 15
-191 8 -7 15 -23 15 -36 0 -24 -2 -24 -95 -24 -91 0 -95 1 -95 22 0 12 6 29
14 37 11 12 16 52 18 154 3 123 1 140 -14 151 -10 7 -18 25 -18 40 0 26 0 26
80 26 l80 0 0 -179z"/>
<path d="M1582 473 l3 -88 88 -3 c87 -3 87 -3 87 22 0 31 29 48 74 44 l32 -3
-113 -175 c-62 -96 -113 -178 -113 -182 0 -5 44 -8 98 -8 l97 0 123 191 c114
178 122 194 122 240 l0 49 -250 0 -251 0 3 -87z m468 33 c0 -26 -21 -68 -88
-173 -157 -245 -134 -221 -208 -225 -35 -2 -64 1 -64 5 0 4 48 81 106 170 59
89 109 168 111 175 4 9 -13 12 -64 12 -71 0 -113 -17 -113 -46 0 -10 -14 -14
-54 -14 -52 0 -54 1 -60 31 -8 41 -8 84 1 92 3 4 102 7 220 7 l213 0 0 -34z"/>
<path d="M3960 510 c0 -38 4 -50 15 -50 13 0 15 -22 15 -139 0 -114 -3 -140
-15 -145 -10 -4 -15 -20 -15 -51 l0 -45 125 0 125 0 0 45 c0 28 -5 47 -15 52
-12 7 -15 43 -17 193 l-3 185 -107 3 -108 3 0 -51z m187 -155 c2 -147 5 -182
18 -191 8 -6 15 -23 15 -38 l0 -26 -95 0 -95 0 0 29 c0 16 6 31 15 35 12 4 15
31 15 149 0 116 -3 147 -15 157 -8 7 -15 26 -15 42 l0 29 78 -3 77 -3 2 -180z"/>
<path d="M4390 470 l0 -90 84 0 84 0 7 29 c6 26 12 31 51 37 25 3 47 4 50 1 3
-3 -46 -85 -109 -183 l-114 -179 90 -3 c50 -1 96 -1 102 2 6 2 64 87 128 189
110 174 117 188 117 236 l0 51 -245 0 -245 0 0 -90z m460 34 c0 -37 -30 -90
-172 -311 l-60 -93 -65 0 -65 0 23 38 c12 20 61 98 109 172 48 74 90 141 95
149 6 11 -6 13 -70 9 -70 -3 -79 -6 -100 -32 -18 -23 -30 -28 -71 -29 l-49 -1
-3 67 -3 67 216 0 215 0 0 -36z"/>
<path d="M2192 343 l3 -88 193 -3 192 -2 0 90 0 90 -195 0 -196 0 3 -87z m368
2 l0 -65 -164 0 -163 0 -7 31 c-8 41 -8 84 1 92 3 4 80 7 170 7 l163 0 0 -65z"/>
</g>
</svg>
