<?xml version="1.0" standalone="no"?>
<!DOCTYPE svg PUBLIC "-//W3C//DTD SVG 20010904//EN"
 "http://www.w3.org/TR/2001/REC-SVG-20010904/DTD/svg10.dtd">
<svg version="1.0" xmlns="http://www.w3.org/2000/svg"
 width="2000.000000pt" height="814.000000pt" viewBox="0 0 2000.000000 814.000000"
 preserveAspectRatio="xMidYMid meet">

<g transform="translate(0.000000,814.000000) scale(0.100000,-0.100000)"
fill="#000000" stroke="none">
<path d="M1941 7173 c-111 -60 -226 -149 -347 -270 -394 -394 -625 -848 -696
-1363 -18 -139 -16 -475 6 -645 93 -736 392 -1427 919 -2125 180 -238 327
-408 593 -687 96 -100 174 -183 174 -186 0 -8 -67 -22 -515 -113 -237 -47
-451 -91 -476 -96 l-47 -10 -17 -63 c-39 -145 -172 -376 -304 -530 -53 -62
-75 -105 -54 -105 24 0 6077 1176 7178 1395 1440 286 1870 370 2095 409 131
23 425 66 450 66 16 0 12 -88 -9 -196 -33 -170 -33 -174 -6 -174 60 0 785 143
785 155 0 25 81 429 89 444 7 11 22 23 34 26 12 3 807 158 1767 345 960 188
2245 440 2855 561 611 122 1456 285 1878 363 525 98 773 148 783 158 14 14 11
22 -36 79 -28 35 -74 103 -102 152 -28 48 -56 87 -62 87 -6 -1 -38 -7 -71 -15
-33 -8 -103 -18 -156 -21 l-95 -7 -228 136 -228 136 -56 -45 c-92 -75 -125
-88 -222 -88 -69 0 -93 4 -129 23 -65 34 -137 106 -167 167 -47 97 -45 130 41
509 42 187 77 349 78 360 2 19 -8 19 -437 20 -497 0 -486 2 -505 -75 -6 -22
-16 -58 -21 -80 -6 -21 -15 -42 -20 -45 -5 -3 -76 27 -158 68 -235 117 -388
157 -617 164 -176 6 -285 -9 -442 -62 -161 -54 -264 -110 -408 -221 -150 -116
-274 -258 -375 -428 -35 -57 -79 -120 -99 -139 -49 -47 -730 -467 -757 -467
-16 0 -24 10 -33 43 -83 280 -362 576 -642 681 -147 55 -403 83 -599 66 -234
-20 -431 -76 -655 -185 -152 -74 -285 -158 -410 -260 -177 -145 -163 -126
-187 -249 l-21 -109 -61 -43 c-182 -129 -859 -599 -969 -673 -100 -66 -132
-83 -144 -75 -10 6 -27 54 -43 120 -43 173 -110 323 -208 464 -117 167 -382
390 -465 390 -8 0 -122 -93 -253 -207 -1083 -940 -1975 -1703 -2022 -1730 -89
-51 -189 -73 -323 -72 -129 1 -214 16 -214 39 0 8 198 186 440 397 242 210
451 396 465 414 l24 31 -57 112 c-202 398 -547 606 -1006 606 -249 0 -477 -71
-670 -207 -88 -63 -233 -210 -305 -311 -95 -134 -187 -335 -231 -507 -3 -14
-1866 -1218 -1885 -1219 -13 -1 -15 19 -14 124 3 347 130 752 329 1050 147
221 330 405 550 553 274 184 558 285 850 303 61 4 116 11 123 17 25 20 10 51
-87 180 -154 205 -372 551 -447 710 -10 21 -25 37 -35 37 -44 0 -206 -56 -314
-110 -120 -58 -315 -181 -412 -258 -84 -67 -237 -217 -326 -321 -459 -529
-704 -1166 -756 -1965 -6 -82 -12 -151 -15 -153 -5 -6 -128 167 -203 287 -223
355 -382 764 -478 1230 -47 232 -56 309 -56 493 0 254 29 439 106 673 95 291
232 520 478 802 45 52 94 112 109 134 l28 41 -63 69 c-302 337 -508 647 -600
903 -44 124 -59 155 -72 155 -7 0 -45 -17 -84 -37z m13813 -1864 c61 -22 141
-89 186 -153 87 -127 75 -311 -26 -409 -149 -144 -434 -77 -534 126 -54 111
-59 218 -14 313 22 46 95 109 147 128 63 22 176 20 241 -5z m-3233 -478 c67
-25 171 -116 217 -188 48 -77 65 -143 60 -237 -7 -130 -60 -215 -171 -274 -47
-24 -62 -27 -152 -27 -93 0 -105 2 -167 33 -236 116 -329 415 -191 614 68 100
254 136 404 79z m2014 -128 c12 -68 46 -167 82 -236 42 -79 153 -202 224 -248
27 -18 48 -34 46 -35 -7 -7 -1399 -285 -1404 -281 -3 3 15 34 39 69 23 35 57
90 74 123 l30 60 444 293 c244 160 447 292 451 292 5 0 11 -17 14 -37z m2260
-58 c39 -29 86 -60 105 -68 l35 -14 -81 -26 c-74 -23 -227 -57 -260 -57 -20 0
-17 24 5 44 10 10 36 55 56 101 29 65 41 82 54 78 9 -3 48 -29 86 -58z m-5681
-695 c-27 -207 -56 -365 -82 -442 l-17 -52 -250 -53 c-258 -54 -737 -143 -767
-143 -27 0 -22 18 31 127 46 94 53 103 108 137 32 21 267 170 522 332 256 162
468 291 472 287 4 -5 -4 -91 -17 -193z m859 -136 c42 -36 179 -107 230 -119
15 -4 27 -11 27 -16 0 -12 -54 -24 -218 -50 -114 -19 -145 -21 -151 -11 -10
17 16 166 35 204 8 15 19 28 25 28 6 0 30 -16 52 -36z m-3186 7 c10 -11 31
-45 47 -76 26 -52 28 -64 24 -133 -5 -80 -25 -133 -76 -199 -24 -33 -99 -73
-197 -109 -115 -41 -137 -118 -66 -235 26 -42 35 -66 27 -70 -21 -11 -357 -79
-659 -133 -273 -48 -298 -51 -295 -34 3 20 1145 1008 1165 1008 7 0 20 -9 30
-19z m-2263 -180 c38 -9 106 -64 106 -87 0 -13 -553 -474 -569 -474 -5 0 -23
17 -38 37 -27 35 -28 41 -28 152 0 101 3 122 23 163 44 88 137 166 242 199 60
20 199 25 264 10z m-1254 -656 c29 -15 73 -65 124 -141 41 -62 158 -171 274
-254 56 -41 102 -77 102 -81 0 -4 -12 -10 -27 -14 -47 -12 -1818 -353 -1821
-351 -4 5 1293 855 1306 855 7 1 26 -6 42 -14z"/>
<path d="M18555 5982 c-68 -33 -128 -93 -158 -161 -33 -71 -30 -188 7 -263
103 -215 410 -240 545 -45 110 160 56 377 -113 465 -40 20 -69 26 -136 29 -78
4 -90 2 -145 -25z m243 -27 c56 -24 106 -70 138 -127 25 -46 29 -63 29 -133 0
-91 -20 -140 -81 -199 -58 -57 -98 -71 -194 -71 -96 0 -136 14 -194 71 -155
150 -87 412 122 470 53 15 128 10 180 -11z"/>
<path d="M18550 5695 l0 -185 35 0 35 0 0 70 c0 70 0 70 28 70 22 0 36 -13 76
-70 l49 -70 49 0 50 0 -30 38 c-17 20 -44 53 -60 72 l-30 35 37 20 c44 25 65
65 57 109 -13 67 -76 96 -213 96 l-83 0 0 -185z m178 124 c34 -12 47 -37 38
-73 -7 -29 -45 -46 -101 -46 l-45 0 0 65 0 65 39 0 c21 0 52 -5 69 -11z"/>
</g>
</svg>
